# xmcd
#
# Track frame offsets:
#	187
#	18805
#	34507
#	48485
#	69997
#	91640
#	110210
#	125340
#	139472
#
# Disc length: 2113 seconds
#
# Revision: 2
# Processed by: cddbd v1.5.2PL0 Copyright (c) Steve Scherf et al.
# Submitted via: EZCDAudioConverter 6.0.2.1
#
DISCID=72083f09
DTITLE=K.T. Oslin - New Way Home
DYEAR=1993
DGENRE=Country
TTITLE0=New Way Home
TTITLE1=Dr., Dr.
TTITLE2=Younger Men
TTITLE3=Cornell Crawford
TTITLE4=Jealous
TTITLE5=Do Ya'
TTITLE6=She Don't Talk Like Us No More
TTITLE7=Truly Blue
TTITLE8=Still On My Mind
EXTD=
EXTT0=
EXTT1=
EXTT2=
EXTT3=
EXTT4=
EXTT5=
EXTT6=
EXTT7=
EXTT8=
PLAYORDER=
